<svg width="285" height="32" viewBox="0 0 285 32" fill="none" xmlns="http://www.w3.org/2000/svg">
<path d="M11.788 11.12C14.0546 11.12 16.0346 11.5533 17.728 12.42C19.4213 13.2733 20.7346 14.4733 21.668 16.02C22.6146 17.5667 23.088 19.3667 23.088 21.42C23.088 23.3133 22.5946 25.0267 21.608 26.56C20.6213 28.0933 19.2546 29.3133 17.508 30.22C15.7746 31.1133 13.7613 31.56 11.468 31.56C9.2013 31.56 7.2213 31.1267 5.52797 30.26C3.83464 29.38 2.51464 28.1667 1.56797 26.62C0.634635 25.0733 0.167969 23.2867 0.167969 21.26C0.167969 19.3267 0.661302 17.6 1.64797 16.08C2.63464 14.5467 3.99464 13.34 5.72797 12.46C7.47464 11.5667 9.49464 11.12 11.788 11.12ZM13.248 28.66C13.7546 28.54 14.1413 28.1867 14.408 27.6C14.6746 27.0133 14.7946 26.16 14.768 25.04C14.7413 23.92 14.5413 22.5 14.168 20.78C13.8213 19.1267 13.428 17.78 12.988 16.74C12.5613 15.7 12.0946 14.9533 11.588 14.5C11.0813 14.0467 10.5546 13.8867 10.008 14.02C9.5013 14.14 9.11464 14.4933 8.84797 15.08C8.5813 15.6667 8.4613 16.52 8.48797 17.64C8.52797 18.7467 8.72797 20.1667 9.08797 21.9C9.43464 23.54 9.82797 24.8867 10.268 25.94C10.708 26.98 11.1746 27.7267 11.668 28.18C12.1746 28.62 12.7013 28.78 13.248 28.66ZM39.9098 26.9V26.64H39.6098V17.4C39.6098 16.9733 39.5498 16.6733 39.4298 16.5C39.3232 16.3133 39.1565 16.1867 38.9298 16.12L38.4898 15.98C38.2098 15.8867 38.0032 15.7533 37.8698 15.58C37.7498 15.4067 37.6898 15.1867 37.6898 14.92C37.6898 14.6 37.7765 14.3467 37.9498 14.16C38.1232 13.9733 38.4498 13.7867 38.9298 13.6L43.3698 11.88C44.0498 11.6133 44.5965 11.42 45.0098 11.3C45.4365 11.18 45.8498 11.12 46.2498 11.12C46.8498 11.12 47.3032 11.2933 47.6098 11.64C47.9298 11.9733 48.0898 12.4 48.0898 12.92V26.8C48.0898 27.3333 48.1298 27.7133 48.2098 27.94C48.2898 28.1533 48.4298 28.3067 48.6298 28.4L49.0698 28.6C49.3765 28.7333 49.5965 28.9 49.7298 29.1C49.8632 29.3 49.9298 29.5333 49.9298 29.8C49.9298 30.1733 49.8098 30.4667 49.5698 30.68C49.3298 30.8933 48.9432 31 48.4098 31H43.5098C42.5632 31 41.7232 30.5933 40.9898 29.78C40.2698 28.9667 39.9098 28.0067 39.9098 26.9ZM26.6898 25.16V17.4C26.6898 16.9733 26.6298 16.6733 26.5098 16.5C26.4032 16.3133 26.2365 16.1867 26.0098 16.12L25.5698 15.98C25.2898 15.8867 25.0832 15.7533 24.9498 15.58C24.8298 15.4067 24.7698 15.1867 24.7698 14.92C24.7698 14.6 24.8565 14.3467 25.0298 14.16C25.2032 13.9733 25.5298 13.7867 26.0098 13.6L30.4498 11.88C31.1698 11.6 31.7365 11.4067 32.1498 11.3C32.5632 11.18 32.9298 11.12 33.2498 11.12C33.8898 11.12 34.3698 11.2933 34.6898 11.64C35.0098 11.9733 35.1698 12.4 35.1698 12.92V23.96C35.1698 24.8133 35.3632 25.4533 35.7498 25.88C36.1498 26.3067 36.7032 26.52 37.4098 26.52C37.8498 26.52 38.3098 26.4333 38.7898 26.26C39.2698 26.0867 39.6965 25.8333 40.0698 25.5L40.7698 24.88L41.9698 26.16L41.3698 26.72C39.4898 28.52 37.8565 29.78 36.4698 30.5C35.0832 31.2067 33.8098 31.56 32.6498 31.56C30.8765 31.56 29.4365 30.9667 28.3298 29.78C27.2365 28.5933 26.6898 27.0533 26.6898 25.16ZM61.782 20.08C61.782 18.04 62.0487 16.36 62.582 15.04C63.1154 13.7067 63.822 12.72 64.702 12.08C65.5954 11.44 66.5687 11.12 67.622 11.12C69.0354 11.12 70.1154 11.5467 70.862 12.4C71.622 13.24 72.002 14.5133 72.002 16.22C72.002 17.9667 71.6487 19.2533 70.942 20.08C70.2487 20.9067 69.342 21.32 68.222 21.32C67.0887 21.32 66.2354 21.0333 65.662 20.46C65.102 19.8733 64.822 19.0667 64.822 18.04V17.2C64.8087 16.8533 64.7287 16.5933 64.582 16.42C64.4487 16.2333 64.2354 16.14 63.942 16.14C63.6754 16.14 63.4354 16.26 63.222 16.5C63.022 16.7267 62.862 17.1067 62.742 17.64C62.622 18.16 62.562 18.8667 62.562 19.76L61.782 20.08ZM62.002 12.92L62.562 17.1V26.8C62.562 27.2667 62.6287 27.6 62.762 27.8C62.8954 27.9867 63.202 28.1267 63.682 28.22L65.202 28.52C65.602 28.6 65.8954 28.74 66.082 28.94C66.2687 29.14 66.362 29.42 66.362 29.78C66.362 30.1667 66.2287 30.4667 65.962 30.68C65.7087 30.8933 65.3287 31 64.822 31H53.762C53.2287 31 52.842 30.8933 52.602 30.68C52.362 30.4667 52.242 30.1733 52.242 29.8C52.242 29.5333 52.3087 29.3 52.442 29.1C52.5754 28.9 52.7954 28.7333 53.102 28.6L53.542 28.4C53.742 28.3067 53.882 28.1533 53.962 27.94C54.042 27.7133 54.082 27.3333 54.082 26.8V17.48C54.082 17.0533 54.022 16.7533 53.902 16.58C53.7954 16.3933 53.6287 16.2667 53.402 16.2L52.962 16.06C52.682 15.9667 52.4754 15.8333 52.342 15.66C52.222 15.4867 52.162 15.2667 52.162 15C52.162 14.68 52.2487 14.4267 52.422 14.24C52.6087 14.04 52.9354 13.8533 53.402 13.68L57.702 12C58.6487 11.6267 59.3287 11.3867 59.742 11.28C60.1554 11.1733 60.4754 11.12 60.702 11.12C61.0754 11.12 61.362 11.26 61.562 11.54C61.762 11.8067 61.9087 12.2667 62.002 12.92ZM101.751 17.3C101.751 18.3133 101.365 19.1733 100.591 19.88C99.8314 20.5867 98.8114 20.94 97.5314 20.94C96.2914 20.94 95.3581 20.6133 94.7314 19.96C94.1181 19.2933 93.8114 18.4467 93.8114 17.42V16.78C93.8114 15.9133 93.6314 15.2333 93.2714 14.74C92.9114 14.2333 92.4381 13.98 91.8514 13.98C91.3847 13.98 90.9447 14.1533 90.5314 14.5C90.1314 14.8467 89.8047 15.38 89.5514 16.1C89.2981 16.8067 89.1714 17.7067 89.1714 18.8C89.1714 20.3467 89.4314 21.64 89.9514 22.68C90.4847 23.72 91.2114 24.5067 92.1314 25.04C93.0514 25.56 94.0981 25.82 95.2714 25.82C96.1247 25.82 96.8914 25.72 97.5714 25.52C98.2647 25.3067 98.9514 24.9 99.6314 24.3C100.018 23.9533 100.311 23.72 100.511 23.6C100.711 23.48 100.905 23.42 101.091 23.42C101.358 23.42 101.551 23.5533 101.671 23.82C101.805 24.0867 101.871 24.4133 101.871 24.8C101.871 25.9867 101.471 27.1 100.671 28.14C99.8847 29.1667 98.7847 29.9933 97.3714 30.62C95.9581 31.2467 94.3181 31.56 92.4514 31.56C90.4114 31.56 88.5781 31.16 86.9514 30.36C85.3381 29.5467 84.0581 28.42 83.1114 26.98C82.1647 25.5267 81.6914 23.8333 81.6914 21.9C81.6914 19.8333 82.1447 17.9867 83.0514 16.36C83.9714 14.7333 85.2647 13.4533 86.9314 12.52C88.6114 11.5867 90.5914 11.12 92.8714 11.12C94.6981 11.12 96.2714 11.4 97.5914 11.96C98.9247 12.5067 99.9514 13.2467 100.671 14.18C101.391 15.1133 101.751 16.1533 101.751 17.3ZM115.616 11.12C117.883 11.12 119.863 11.5533 121.556 12.42C123.249 13.2733 124.563 14.4733 125.496 16.02C126.443 17.5667 126.916 19.3667 126.916 21.42C126.916 23.3133 126.423 25.0267 125.436 26.56C124.449 28.0933 123.083 29.3133 121.336 30.22C119.603 31.1133 117.589 31.56 115.296 31.56C113.029 31.56 111.049 31.1267 109.356 30.26C107.663 29.38 106.343 28.1667 105.396 26.62C104.463 25.0733 103.996 23.2867 103.996 21.26C103.996 19.3267 104.489 17.6 105.476 16.08C106.463 14.5467 107.823 13.34 109.556 12.46C111.303 11.5667 113.323 11.12 115.616 11.12ZM117.076 28.66C117.583 28.54 117.969 28.1867 118.236 27.6C118.503 27.0133 118.623 26.16 118.596 25.04C118.569 23.92 118.369 22.5 117.996 20.78C117.649 19.1267 117.256 17.78 116.816 16.74C116.389 15.7 115.923 14.9533 115.416 14.5C114.909 14.0467 114.383 13.8867 113.836 14.02C113.329 14.14 112.943 14.4933 112.676 15.08C112.409 15.6667 112.289 16.52 112.316 17.64C112.356 18.7467 112.556 20.1667 112.916 21.9C113.263 23.54 113.656 24.8867 114.096 25.94C114.536 26.98 115.003 27.7267 115.496 28.18C116.003 28.62 116.529 28.78 117.076 28.66ZM139.398 2.6V26.8C139.398 27.3333 139.438 27.7133 139.518 27.94C139.598 28.1533 139.738 28.3067 139.938 28.4L140.378 28.6C140.685 28.7333 140.905 28.9 141.038 29.1C141.171 29.3 141.238 29.5333 141.238 29.8C141.238 30.1733 141.118 30.4667 140.878 30.68C140.638 30.8933 140.251 31 139.718 31H130.598C130.065 31 129.678 30.8933 129.438 30.68C129.198 30.4667 129.078 30.1733 129.078 29.8C129.078 29.5333 129.145 29.3 129.278 29.1C129.411 28.9 129.631 28.7333 129.938 28.6L130.378 28.4C130.578 28.3067 130.718 28.1533 130.798 27.94C130.878 27.7133 130.918 27.3333 130.918 26.8V7.08C130.918 6.65333 130.858 6.35333 130.738 6.18C130.631 5.99333 130.465 5.86666 130.238 5.8L129.798 5.66C129.518 5.56667 129.311 5.43333 129.178 5.26C129.058 5.08667 128.998 4.86667 128.998 4.6C128.998 4.28 129.085 4.02667 129.258 3.84C129.431 3.65333 129.758 3.46667 130.238 3.28L134.678 1.56C135.398 1.28 135.965 1.08667 136.378 0.979999C136.791 0.859998 137.158 0.799998 137.478 0.799998C138.118 0.799998 138.598 0.973331 138.918 1.32C139.238 1.65333 139.398 2.08 139.398 2.6ZM153.46 2.6V26.8C153.46 27.3333 153.5 27.7133 153.58 27.94C153.66 28.1533 153.8 28.3067 154 28.4L154.44 28.6C154.747 28.7333 154.967 28.9 155.1 29.1C155.234 29.3 155.3 29.5333 155.3 29.8C155.3 30.1733 155.18 30.4667 154.94 30.68C154.7 30.8933 154.314 31 153.78 31H144.66C144.127 31 143.74 30.8933 143.5 30.68C143.26 30.4667 143.14 30.1733 143.14 29.8C143.14 29.5333 143.207 29.3 143.34 29.1C143.474 28.9 143.694 28.7333 144 28.6L144.44 28.4C144.64 28.3067 144.78 28.1533 144.86 27.94C144.94 27.7133 144.98 27.3333 144.98 26.8V7.08C144.98 6.65333 144.92 6.35333 144.8 6.18C144.694 5.99333 144.527 5.86666 144.3 5.8L143.86 5.66C143.58 5.56667 143.374 5.43333 143.24 5.26C143.12 5.08667 143.06 4.86667 143.06 4.6C143.06 4.28 143.147 4.02667 143.32 3.84C143.494 3.65333 143.82 3.46667 144.3 3.28L148.74 1.56C149.46 1.28 150.027 1.08667 150.44 0.979999C150.854 0.859998 151.22 0.799998 151.54 0.799998C152.18 0.799998 152.66 0.973331 152.98 1.32C153.3 1.65333 153.46 2.08 153.46 2.6ZM177.463 18.84C177.463 19.7733 177.21 20.5 176.703 21.02C176.196 21.5267 175.47 21.78 174.523 21.78H162.663V19.7H168.003C168.736 19.7 169.103 19.3533 169.103 18.66C169.103 16.98 168.91 15.78 168.523 15.06C168.136 14.34 167.623 13.98 166.983 13.98C166.516 13.98 166.096 14.1533 165.723 14.5C165.35 14.8467 165.05 15.38 164.823 16.1C164.61 16.8067 164.503 17.7067 164.503 18.8C164.503 21.2267 165.05 23.0067 166.143 24.14C167.236 25.26 168.73 25.82 170.623 25.82C171.503 25.82 172.303 25.72 173.023 25.52C173.743 25.32 174.45 24.9133 175.143 24.3C175.53 23.9533 175.823 23.72 176.023 23.6C176.223 23.48 176.416 23.42 176.603 23.42C176.87 23.42 177.063 23.5533 177.183 23.82C177.316 24.0867 177.383 24.4133 177.383 24.8C177.383 25.9867 176.976 27.1 176.163 28.14C175.363 29.1667 174.243 29.9933 172.803 30.62C171.376 31.2467 169.71 31.56 167.803 31.56C165.763 31.56 163.93 31.16 162.303 30.36C160.676 29.5467 159.39 28.42 158.443 26.98C157.496 25.5267 157.023 23.8333 157.023 21.9C157.023 19.7267 157.456 17.8333 158.323 16.22C159.19 14.6067 160.45 13.3533 162.103 12.46C163.77 11.5667 165.776 11.12 168.123 11.12C170.19 11.12 171.916 11.4533 173.303 12.12C174.69 12.7867 175.73 13.7 176.423 14.86C177.116 16.02 177.463 17.3467 177.463 18.84ZM199.486 17.3C199.486 18.3133 199.099 19.1733 198.326 19.88C197.566 20.5867 196.546 20.94 195.266 20.94C194.026 20.94 193.092 20.6133 192.466 19.96C191.852 19.2933 191.546 18.4467 191.546 17.42V16.78C191.546 15.9133 191.366 15.2333 191.006 14.74C190.646 14.2333 190.172 13.98 189.586 13.98C189.119 13.98 188.679 14.1533 188.266 14.5C187.866 14.8467 187.539 15.38 187.286 16.1C187.032 16.8067 186.906 17.7067 186.906 18.8C186.906 20.3467 187.166 21.64 187.686 22.68C188.219 23.72 188.946 24.5067 189.866 25.04C190.786 25.56 191.832 25.82 193.006 25.82C193.859 25.82 194.626 25.72 195.306 25.52C195.999 25.3067 196.686 24.9 197.366 24.3C197.752 23.9533 198.046 23.72 198.246 23.6C198.446 23.48 198.639 23.42 198.826 23.42C199.092 23.42 199.286 23.5533 199.406 23.82C199.539 24.0867 199.606 24.4133 199.606 24.8C199.606 25.9867 199.206 27.1 198.406 28.14C197.619 29.1667 196.519 29.9933 195.106 30.62C193.692 31.2467 192.052 31.56 190.186 31.56C188.146 31.56 186.312 31.16 184.686 30.36C183.072 29.5467 181.792 28.42 180.846 26.98C179.899 25.5267 179.426 23.8333 179.426 21.9C179.426 19.8333 179.879 17.9867 180.786 16.36C181.706 14.7333 182.999 13.4533 184.666 12.52C186.346 11.5867 188.326 11.12 190.606 11.12C192.432 11.12 194.006 11.4 195.326 11.96C196.659 12.5067 197.686 13.2467 198.406 14.18C199.126 15.1133 199.486 16.1533 199.486 17.3ZM202.65 14.32L202.01 14.06C201.717 13.94 201.497 13.7867 201.35 13.6C201.204 13.4133 201.13 13.1867 201.13 12.92C201.13 12.5333 201.257 12.24 201.51 12.04C201.777 11.8267 202.117 11.72 202.53 11.72H203.63C203.884 11.72 204.117 11.6533 204.33 11.52C204.557 11.3867 204.844 11.1467 205.19 10.8L208.45 7.5C208.89 7.06 209.297 6.73333 209.67 6.52C210.057 6.30667 210.424 6.2 210.77 6.2C211.157 6.2 211.457 6.32667 211.67 6.58C211.897 6.83333 212.01 7.2 212.01 7.68V23.72C212.01 24.6933 212.177 25.4333 212.51 25.94C212.844 26.4467 213.324 26.7 213.95 26.7C214.457 26.7 214.844 26.5733 215.11 26.32C215.39 26.0667 215.61 25.78 215.77 25.46C215.944 25.1267 216.124 24.8333 216.31 24.58C216.497 24.3267 216.75 24.2 217.07 24.2C217.337 24.2 217.55 24.2933 217.71 24.48C217.87 24.6667 217.95 24.9867 217.95 25.44C217.95 26.5733 217.624 27.6067 216.97 28.54C216.317 29.46 215.417 30.1933 214.27 30.74C213.124 31.2867 211.817 31.56 210.35 31.56C208.177 31.56 206.497 31.04 205.31 30C204.124 28.9467 203.53 27.36 203.53 25.24V15.62C203.53 15.2333 203.457 14.9533 203.31 14.78C203.177 14.6067 202.957 14.4533 202.65 14.32ZM209.09 14.56V11.72H216.39C216.804 11.72 217.13 11.8133 217.37 12C217.624 12.1733 217.75 12.4267 217.75 12.76C217.75 13.2667 217.504 13.6933 217.01 14.04C216.517 14.3867 215.704 14.56 214.57 14.56H209.09ZM229.906 12.92V26.8C229.906 27.3333 229.946 27.7133 230.026 27.94C230.106 28.1533 230.246 28.3067 230.446 28.4L230.886 28.6C231.192 28.7333 231.412 28.9 231.546 29.1C231.679 29.3 231.746 29.5333 231.746 29.8C231.746 30.1733 231.626 30.4667 231.386 30.68C231.146 30.8933 230.759 31 230.226 31H221.106C220.572 31 220.186 30.8933 219.946 30.68C219.706 30.4667 219.586 30.1733 219.586 29.8C219.586 29.5333 219.652 29.3 219.786 29.1C219.919 28.9 220.139 28.7333 220.446 28.6L220.886 28.4C221.086 28.3067 221.226 28.1533 221.306 27.94C221.386 27.7133 221.426 27.3333 221.426 26.8V17.4C221.426 16.9733 221.366 16.6733 221.246 16.5C221.139 16.3133 220.972 16.1867 220.746 16.12L220.306 15.98C220.026 15.8867 219.819 15.7533 219.686 15.58C219.566 15.4067 219.506 15.1867 219.506 14.92C219.506 14.6 219.592 14.3467 219.766 14.16C219.939 13.9733 220.266 13.7867 220.746 13.6L225.186 11.88C225.906 11.6 226.472 11.4067 226.886 11.3C227.299 11.18 227.666 11.12 227.986 11.12C228.626 11.12 229.106 11.2933 229.426 11.64C229.746 11.9733 229.906 12.4 229.906 12.92ZM225.226 9.36C223.732 9.36 222.552 9.01333 221.686 8.32C220.819 7.62666 220.386 6.68 220.386 5.48C220.386 4.29333 220.819 3.36 221.686 2.68C222.552 2 223.732 1.66 225.226 1.66C226.719 1.66 227.899 2 228.766 2.68C229.632 3.36 230.066 4.29333 230.066 5.48C230.066 6.68 229.632 7.62666 228.766 8.32C227.899 9.01333 226.719 9.36 225.226 9.36ZM245.108 11.12C247.375 11.12 249.355 11.5533 251.048 12.42C252.742 13.2733 254.055 14.4733 254.988 16.02C255.935 17.5667 256.408 19.3667 256.408 21.42C256.408 23.3133 255.915 25.0267 254.928 26.56C253.942 28.0933 252.575 29.3133 250.828 30.22C249.095 31.1133 247.082 31.56 244.788 31.56C242.522 31.56 240.542 31.1267 238.848 30.26C237.155 29.38 235.835 28.1667 234.888 26.62C233.955 25.0733 233.488 23.2867 233.488 21.26C233.488 19.3267 233.982 17.6 234.968 16.08C235.955 14.5467 237.315 13.34 239.048 12.46C240.795 11.5667 242.815 11.12 245.108 11.12ZM246.568 28.66C247.075 28.54 247.462 28.1867 247.728 27.6C247.995 27.0133 248.115 26.16 248.088 25.04C248.062 23.92 247.862 22.5 247.488 20.78C247.142 19.1267 246.748 17.78 246.308 16.74C245.882 15.7 245.415 14.9533 244.908 14.5C244.402 14.0467 243.875 13.8867 243.328 14.02C242.822 14.14 242.435 14.4933 242.168 15.08C241.902 15.6667 241.782 16.52 241.808 17.64C241.848 18.7467 242.048 20.1667 242.408 21.9C242.755 23.54 243.148 24.8867 243.588 25.94C244.028 26.98 244.495 27.7267 244.988 28.18C245.495 28.62 246.022 28.78 246.568 28.66ZM268.89 12.92V26.8C268.89 27.3333 268.93 27.7067 269.01 27.92C269.09 28.1333 269.23 28.2933 269.43 28.4L269.83 28.62C270.27 28.8733 270.49 29.24 270.49 29.72C270.49 30.5733 269.977 31 268.95 31H260.09C259.557 31 259.17 30.8933 258.93 30.68C258.69 30.4667 258.57 30.1733 258.57 29.8C258.57 29.5333 258.637 29.3 258.77 29.1C258.903 28.9 259.123 28.7333 259.43 28.6L259.87 28.4C260.07 28.3067 260.21 28.1533 260.29 27.94C260.37 27.7133 260.41 27.3333 260.41 26.8V17.4C260.41 16.9733 260.35 16.6733 260.23 16.5C260.123 16.3133 259.957 16.1867 259.73 16.12L259.29 15.98C259.01 15.8867 258.803 15.7533 258.67 15.58C258.55 15.4067 258.49 15.1867 258.49 14.92C258.49 14.6 258.577 14.3467 258.75 14.16C258.923 13.9733 259.25 13.7867 259.73 13.6L264.17 11.88C264.85 11.6133 265.397 11.42 265.81 11.3C266.237 11.18 266.65 11.12 267.05 11.12C267.65 11.12 268.103 11.2933 268.41 11.64C268.73 11.9733 268.89 12.4 268.89 12.92ZM268.17 17.8L266.97 16.52L267.57 15.96C269.45 14.16 271.083 12.9067 272.47 12.2C273.857 11.48 275.13 11.12 276.29 11.12C278.077 11.12 279.517 11.7133 280.61 12.9C281.703 14.0733 282.25 15.6133 282.25 17.52V26.8C282.25 27.3333 282.29 27.7133 282.37 27.94C282.45 28.1533 282.59 28.3067 282.79 28.4L283.23 28.6C283.537 28.7333 283.757 28.9 283.89 29.1C284.023 29.3 284.09 29.5333 284.09 29.8C284.09 30.1733 283.97 30.4667 283.73 30.68C283.49 30.8933 283.103 31 282.57 31H273.71C272.683 31 272.17 30.5733 272.17 29.72C272.17 29.24 272.39 28.8733 272.83 28.62L273.23 28.4C273.43 28.2933 273.57 28.1333 273.65 27.92C273.73 27.7067 273.77 27.3333 273.77 26.8V18.72C273.77 17.8667 273.57 17.2267 273.17 16.8C272.783 16.3733 272.237 16.16 271.53 16.16C271.09 16.16 270.63 16.2467 270.15 16.42C269.67 16.5933 269.243 16.8467 268.87 17.18L268.17 17.8Z" fill="#83888F"/>
</svg>
